# xmcd CD database file
#
# Track frame offsets:
#	150
#	26587
#	52535
#	60840
#	76922
#	131302
#	142817
#	173997
#	221807
#	257225
#	269267
#
# Disc length: 4369 seconds
#
# Revision: 2
# Processed by: cddbd v1.4PL0 Copyright (c) Steve Scherf et al.
# Submitted via: CDex 1.50Beta7
#
DISCID=8b110f0b
DTITLE=Uri Caine (Gustav Mahler) - Urlicht - Primal Light
DYEAR=1996
DGENRE=Jazz
TTITLE0=Symphony n° 5, Funeral March
TTITLE1=The Drummer Boy
TTITLE2=Now Will The Sun Rise As Brightly
TTITLE3=I Often Think They Have Merely Gone Out!
TTITLE4=Symphony n° 1 Titan, 3rd Movement
TTITLE5=Symphony n° 2 Resurrection, Primal Light
TTITLE6=I Went Out This Morning Over The Countryside
TTITLE7=Symphony n° 5, Adagietto
TTITLE8=The Drunkard In Spring
TTITLE9=Who Thought Up This Song
TTITLE10=The Farewell
EXTD=YEAR: 1996
EXTT0=
EXTT1=
EXTT2=
EXTT3=
EXTT4=
EXTT5=
EXTT6=
EXTT7=
EXTT8=
EXTT9=
EXTT10=
PLAYORDER=
